<?xml version="1.0" standalone="no"?>
<!DOCTYPE svg PUBLIC "-//W3C//DTD SVG 20010904//EN"
        "http://www.w3.org/TR/2001/REC-SVG-20010904/DTD/svg10.dtd">
<svg version="1.0" xmlns="http://www.w3.org/2000/svg"
     width="1024.000000pt" height="1024.000000pt" viewBox="0 0 1024.000000 1024.000000"
     preserveAspectRatio="xMidYMid meet">

    <g transform="translate(0.000000,1024.000000) scale(0.100000,-0.100000)"
       fill="#000000" stroke="none">
        <path d="M3997 7538 c3 -106 7 -194 8 -195 1 -2 493 -4 1093 -5 l1092 -3 0
198 0 197 -1100 0 -1099 0 6 -192z"/>
        <path d="M3320 7163 c0 -65 3 -148 6 -185 l7 -66 163 -2 164 -1 0 186 0 185
-170 0 -170 0 0 -117z"/>
        <path d="M6520 7105 l0 -175 26 -10 c28 -11 234 -14 283 -4 l31 7 0 178 0 179
-170 0 -170 0 0 -175z"/>
        <path d="M2664 6788 c3 -100 9 -184 11 -187 3 -2 74 -5 159 -6 l154 -1 6 29
c3 16 6 101 6 188 l0 159 -172 0 -171 0 7 -182z"/>
        <path d="M7190 6831 c0 -75 3 -158 6 -186 l6 -50 164 0 164 0 0 188 0 188
-170 -2 -170 -3 0 -135z"/>
        <path d="M4810 6860 c-264 -13 -541 -61 -785 -135 -66 -21 -141 -43 -166 -51
-66 -20 -251 -89 -349 -130 -131 -56 -537 -256 -620 -306 -41 -25 -129 -76
-195 -113 -116 -66 -224 -133 -350 -217 -174 -117 -317 -216 -377 -260 -90
-67 -104 -110 -73 -216 29 -97 102 -151 203 -152 68 0 101 14 200 88 157 116
520 355 667 437 28 16 83 48 123 72 451 270 1044 485 1534 557 257 38 681 38
938 0 590 -88 1243 -353 1923 -781 112 -71 382 -256 474 -326 41 -31 65 -41
103 -45 70 -6 132 14 184 59 57 50 86 110 86 177 0 80 -11 89 -430 366 -577
381 -1116 652 -1602 805 -252 80 -567 143 -793 160 -191 14 -518 19 -695 11z"/>
        <path d="M2000 6460 l0 -180 170 0 170 0 0 180 0 180 -170 0 -170 0 0 -180z"/>
        <path d="M7860 6458 l0 -177 160 -3 159 -3 6 50 c3 28 5 109 3 180 l-3 130
-162 0 -163 1 0 -178z"/>
        <path d="M4975 6163 c-78 -10 -207 -38 -269 -59 -222 -76 -505 -287 -654 -489
-158 -213 -232 -487 -203 -742 24 -202 96 -398 208 -564 62 -91 254 -279 348
-341 139 -91 251 -138 445 -190 74 -19 109 -22 260 -22 162 1 184 3 293 32
235 61 449 183 612 348 241 243 376 572 362 879 -13 282 -135 555 -335 751
-214 210 -481 349 -745 388 -95 15 -247 19 -322 9z m276 -433 c90 -17 91 -19
87 -261 -3 -190 -5 -209 -23 -229 -36 -41 -70 -47 -212 -41 l-133 6 -32 33
-33 32 0 209 c0 233 0 234 68 250 57 12 213 13 278 1z m635 -455 c67 -140 89
-297 60 -426 -70 -313 -318 -567 -636 -650 -98 -26 -277 -28 -370 -4 -250 65
-460 216 -572 411 -82 143 -107 267 -88 441 17 156 53 239 157 357 l38 43 -3
-72 c-9 -171 76 -342 196 -395 45 -20 62 -21 442 -18 l395 3 67 33 c50 24 76
45 104 83 53 73 84 179 84 291 l0 90 46 -58 c26 -33 61 -90 80 -129z"/>
        <path d="M1582 4966 c-28 -15 -83 -69 -98 -97 -26 -51 -33 -108 -20 -160 25
-97 96 -140 229 -141 98 -1 147 12 209 57 90 66 137 215 87 279 -41 52 -72 60
-237 66 -85 3 -161 1 -170 -4z"/>
        <path d="M8428 4970 c-127 -5 -151 -8 -175 -26 -43 -32 -55 -62 -50 -125 9
-111 100 -226 196 -249 91 -22 226 4 280 53 31 28 61 93 61 133 0 43 -25 111
-56 152 -27 34 -81 73 -99 70 -5 -1 -76 -4 -157 -8z"/>
        <path d="M2042 4543 c-114 -40 -165 -169 -111 -280 23 -47 37 -58 470 -348
526 -353 1011 -580 1569 -734 426 -118 770 -158 1255 -148 402 9 710 59 1105
179 336 102 877 348 1207 549 283 173 677 431 725 477 54 50 60 130 16 220
-29 62 -101 102 -184 102 -84 0 -112 -12 -239 -98 -60 -41 -153 -104 -205
-140 -149 -102 -479 -297 -655 -387 -400 -203 -865 -369 -1235 -440 -227 -43
-650 -65 -915 -46 -328 23 -500 54 -780 138 -538 161 -1178 486 -1695 861
-155 113 -223 132 -328 95z"/>
        <path d="M2000 3280 l0 -180 170 0 170 0 0 180 0 180 -170 0 -170 0 0 -180z"/>
        <path d="M7860 3280 l0 -180 165 0 165 0 0 180 0 180 -165 0 -165 0 0 -180z"/>
        <path d="M2663 2949 c4 -79 6 -165 7 -192 l0 -47 160 2 161 3 5 183 4 182
-154 0 c-85 0 -162 3 -171 7 -16 6 -17 -5 -12 -138z"/>
        <path d="M7192 2900 l3 -185 160 3 c88 2 162 6 165 9 3 2 5 83 5 178 l0 174
-168 3 -167 3 2 -185z"/>
        <path d="M3320 2616 c0 -67 3 -151 6 -185 l7 -61 163 2 164 1 0 168 c0 92 -3
174 -6 183 -5 14 -30 16 -170 16 l-164 0 0 -124z"/>
        <path d="M6522 2566 c2 -96 7 -178 11 -183 5 -4 80 -9 168 -10 l159 -1 0 184
0 184 -171 0 -171 0 4 -174z"/>
        <path d="M3995 2237 c-7 -98 0 -266 11 -277 3 -3 496 -7 1095 -10 l1089 -5 0
198 0 197 -1094 0 -1094 -1 -7 -102z"/>
    </g>
</svg>
